# xmcd
#
# Track frame offsets:
# 150
# 13617
# 28145
# 46205
# 62767
# 80437
# 96162
# 109325
# 124222
# 146282
# 163632
# 177835
# 187005
# 200855
# 213952
# 225110
# 240250
# 251625
# 265577
# 279935
#
# Disc length: 3968 seconds
#
#
# Revision: 0
# Processed by: cddbd v1.5.2PL0 Copyright (c) Steve Scherf et al.
# Submitted via: FreeRIP 2.951 
#
DISCID=0e0f7e14
DTITLE=G e F - G e F 
DYEAR=2004
DGENRE=Blues
TTITLE0=ddddddddd
TTITLE1=gggggggggg
TTITLE2=jjjjjjjjjjjjjjjj
TTITLE3=kkkkkkkkkkkkkk
TTITLE4=eeeeeeeeeee
TTITLE5=ttttttttttttt
TTITLE6=yuyyyyyyyyyyyyyyyyy
TTITLE7=uuuuuuuuuuuuui
TTITLE8=ooooooooooooooooi
TTITLE9=aaaaaaaaaasi
TTITLE10=hhhhhhhhhhhhhhh
TTITLE11=dddddddddddddd
TTITLE12=zzzzzzzzzzzzzzz
TTITLE13=qqqqqqqqqqqqqqqqqqqqqq
TTITLE14=wwwwwwwwwwwwww
TTITLE15=ppppppppppppppp
TTITLE16=vvvvvvvvvvvvvvv
TTITLE17=ddddddddddddddddddd
TTITLE18=ffffffffffffffffff
TTITLE19=hmkjhhtrhddsfssg
EXTD=
EXTT0=
EXTT1=
EXTT2=
EXTT3=
EXTT4=
EXTT5=
EXTT6=
EXTT7=
EXTT8=
EXTT9=
EXTT10=
EXTT11=
EXTT12=
EXTT13=
EXTT14=
EXTT15=
EXTT16=
EXTT17=
EXTT18=
EXTT19=
PLAYORDER=
